<?xml version="1.0" encoding="utf-8"?><svg xml:space="preserve" viewBox="0 0 100 100" y="0" x="0" xmlns="http://www.w3.org/2000/svg" id="圖層_1" version="1.1" width="128px" height="128px" xmlns:xlink="http://www.w3.org/1999/xlink" style="width:100%;height:100%;background-color:rgb(255, 255, 255);animation-play-state:paused" ><g class="ldl-scale" style="transform-origin:50% 50% 0px;transform:rotate(0deg) scale(0.8);animation-play-state:paused" ><path fill="#221e1f" d="M14.3 70v6c0 6.6 14.6 14 35.6 14s35.7-7.4 35.7-14v-6c-6.9 5.8-20.1 9.7-35.7 9.7-15.4 0-28.6-3.9-35.6-9.7z" style="fill:rgb(34, 30, 31);animation-play-state:paused" ></path>
<path fill="#221e1f" d="M78.6 58.9c-1 .5-2.1.9-3.3 1.3-6.9 2.5-15.7 4-25.4 4s-18.4-1.5-25.4-4c-1.1-.4-2.2-.9-3.3-1.3-1-.4-1.9-.9-2.7-1.4-1.6-.9-3-1.9-4.3-2.9v6c0 .8.2 1.7.7 2.6.4.7.9 1.4 1.6 2.1 4.9 5 17.2 9.4 33.4 9.4 16.1 0 28.5-4.3 33.4-9.4.7-.7 1.2-1.4 1.6-2.1.5-.9.7-1.7.7-2.6v-6c-1.2 1-2.7 2-4.3 2.9-.8.5-1.7.9-2.7 1.4z" style="fill:rgb(34, 30, 31);animation-play-state:paused" ></path>
<path fill="#221e1f" d="M79.2 43.7c-1 .5-2.1.9-3.2 1.4-7 2.7-16 4.3-26 4.3s-19-1.6-26-4.3c-1.1-.4-2.2-.9-3.2-1.4-.9-.4-1.8-.9-2.7-1.4-1.4-.8-2.7-1.7-3.8-2.7v5.5c0 .8.2 1.7.7 2.6.4.7.9 1.4 1.6 2.1 1.8 1.8 4.5 3.5 8 5 1.2.5 2.5 1 3.9 1.4 1.6.5 3.3 1 5.2 1.3 4.8 1 10.3 1.6 16.3 1.6s11.5-.6 16.3-1.6c1.8-.4 3.5-.8 5.2-1.3 1.4-.4 2.7-.9 3.9-1.4 3.5-1.5 6.3-3.2 8-5 .7-.7 1.2-1.4 1.6-2.1.5-.9.7-1.7.7-2.6v-5.5c-1.1.9-2.4 1.8-3.8 2.7-.9.5-1.8.9-2.7 1.4z" style="fill:rgb(34, 30, 31);animation-play-state:paused" ></path>
<path fill="#221e1f" d="M50 10c-21 0-35.6 7.4-35.6 14v6.2c0 .7.2 1.5.5 2.2.3.7.8 1.5 1.5 2.2 1.6 1.8 4.2 3.5 7.6 5 1.1.5 2.4 1 3.7 1.4 1.5.5 3.1 1 4.8 1.4 5.1 1.2 11 1.9 17.5 1.9s12.4-.7 17.5-1.9c1.7-.4 3.3-.9 4.8-1.4 1.3-.4 2.6-.9 3.7-1.4 3.4-1.5 6-3.2 7.6-5 .7-.7 1.2-1.4 1.5-2.2.3-.7.5-1.5.5-2.2V24C85.7 17.4 71 10 50 10z" style="fill:rgb(34, 30, 31);animation-play-state:paused" ></path>
<metadata xmlns:d="https://loading.io/stock/" style="animation-play-state:paused" ><d:name style="animation-play-state:paused" >database</d:name>
<d:tags style="animation-play-state:paused" >harddisk,storage,nas,depot,repository,data center,database,web application</d:tags>
<d:license style="animation-play-state:paused" >by</d:license>
<d:slug style="animation-play-state:paused" >tdjacw</d:slug></metadata></g><!-- generated by https://loading.io/ --></svg>